<?xml version="1.0" standalone="no"?>
<svg xmlns:xlink="http://www.w3.org/1999/xlink" id="wave" style="transform:rotate(0deg); transition: 0.3s" viewBox="0 0 1440 490" version="1.1" xmlns="http://www.w3.org/2000/svg"><defs><linearGradient id="sw-gradient-0" x1="0" x2="0" y1="1" y2="0"><stop stop-color="rgba(0, 180, 216, 1)" offset="0%"/><stop stop-color="rgba(0, 119, 182, 1)" offset="100%"/></linearGradient></defs><path style="transform:translate(0, 0px); opacity:1" fill="url(#sw-gradient-0)" d="M0,147L26.7,179.7C53.3,212,107,278,160,310.3C213.3,343,267,343,320,318.5C373.3,294,427,245,480,212.3C533.3,180,587,163,640,147C693.3,131,747,114,800,106.2C853.3,98,907,98,960,98C1013.3,98,1067,98,1120,98C1173.3,98,1227,98,1280,106.2C1333.3,114,1387,131,1440,187.8C1493.3,245,1547,343,1600,351.2C1653.3,359,1707,278,1760,236.8C1813.3,196,1867,196,1920,163.3C1973.3,131,2027,65,2080,40.8C2133.3,16,2187,33,2240,98C2293.3,163,2347,278,2400,277.7C2453.3,278,2507,163,2560,138.8C2613.3,114,2667,180,2720,212.3C2773.3,245,2827,245,2880,261.3C2933.3,278,2987,310,3040,294C3093.3,278,3147,212,3200,212.3C3253.3,212,3307,278,3360,318.5C3413.3,359,3467,376,3520,367.5C3573.3,359,3627,327,3680,310.3C3733.3,294,3787,294,3813,294L3840,294L3840,490L3813.3,490C3786.7,490,3733,490,3680,490C3626.7,490,3573,490,3520,490C3466.7,490,3413,490,3360,490C3306.7,490,3253,490,3200,490C3146.7,490,3093,490,3040,490C2986.7,490,2933,490,2880,490C2826.7,490,2773,490,2720,490C2666.7,490,2613,490,2560,490C2506.7,490,2453,490,2400,490C2346.7,490,2293,490,2240,490C2186.7,490,2133,490,2080,490C2026.7,490,1973,490,1920,490C1866.7,490,1813,490,1760,490C1706.7,490,1653,490,1600,490C1546.7,490,1493,490,1440,490C1386.7,490,1333,490,1280,490C1226.7,490,1173,490,1120,490C1066.7,490,1013,490,960,490C906.7,490,853,490,800,490C746.7,490,693,490,640,490C586.7,490,533,490,480,490C426.7,490,373,490,320,490C266.7,490,213,490,160,490C106.7,490,53,490,27,490L0,490Z"/></svg>